<?xml version="1.0" encoding="UTF-8" standalone="no"?>
<!DOCTYPE svg PUBLIC "-//W3C//DTD SVG 1.1//EN"
 "http://www.w3.org/Graphics/SVG/1.1/DTD/svg11.dtd">
<!-- Generated by graphviz version 2.40.1 (20161225.0304)
 -->
<!-- Title: dependencies Pages: 1 -->
<svg width="1114pt" height="211pt"
 viewBox="0.00 0.00 1114.00 211.00" xmlns="http://www.w3.org/2000/svg" xmlns:xlink="http://www.w3.org/1999/xlink">
<g id="graph0" class="graph" transform="scale(1 1) rotate(0) translate(4 207)">
<title>dependencies</title>
<polygon fill="#ffffff" stroke="transparent" points="-4,4 -4,-207 1110,-207 1110,4 -4,4"/>
<text text-anchor="start" x="532.0091" y="-42.4" font-family="sans-serif" font-weight="bold" font-size="14.00" fill="#000000">Legend</text>
<polygon fill="#ffffb3" stroke="transparent" points="319,-10 319,-30 339,-30 339,-10 319,-10"/>
<text text-anchor="start" x="342.629" y="-15.4" font-family="sans-serif" font-size="14.00" fill="#000000"> &#160;Declarations</text>
<polygon fill="#8dd3c7" stroke="transparent" points="432,-10 432,-30 452,-30 452,-10 432,-10"/>
<text text-anchor="start" x="455.7251" y="-15.4" font-family="sans-serif" font-size="14.00" fill="#000000"> &#160;Module</text>
<polygon fill="#80b1d3" stroke="transparent" points="518,-10 518,-30 538,-30 538,-10 518,-10"/>
<text text-anchor="start" x="541.7812" y="-15.4" font-family="sans-serif" font-size="14.00" fill="#000000"> &#160;Bootstrap</text>
<polygon fill="#fdb462" stroke="transparent" points="615,-10 615,-30 635,-30 635,-10 615,-10"/>
<text text-anchor="start" x="638.6732" y="-15.4" font-family="sans-serif" font-size="14.00" fill="#000000"> &#160;Providers</text>
<polygon fill="#fb8072" stroke="transparent" points="711,-10 711,-30 731,-30 731,-10 711,-10"/>
<text text-anchor="start" x="734.7258" y="-15.4" font-family="sans-serif" font-size="14.00" fill="#000000"> &#160;Exports</text>
<g id="clust1" class="cluster">
<title>cluster_AuthenticationModule</title>
<polygon fill="none" stroke="#000000" stroke-dasharray="1,5" points="8,-70 8,-195 1098,-195 1098,-70 8,-70"/>
</g>
<g id="clust2" class="cluster">
<title>cluster_AuthenticationModule_declarations</title>
<polygon fill="none" stroke="#000000" points="817,-78 817,-130 1090,-130 1090,-78 817,-78"/>
</g>
<g id="clust8" class="cluster">
<title>cluster_AuthenticationModule_providers</title>
<polygon fill="none" stroke="#000000" points="16,-78 16,-130 809,-130 809,-78 16,-78"/>
</g>
<!-- IdentityComponent -->
<g id="node1" class="node">
<title>IdentityComponent</title>
<polygon fill="#ffffb3" stroke="#000000" points="1082.3795,-122 957.6205,-122 957.6205,-86 1082.3795,-86 1082.3795,-122"/>
<text text-anchor="middle" x="1020" y="-99.8" font-family="Times,serif" font-size="14.00" fill="#000000">IdentityComponent</text>
</g>
<!-- AuthenticationModule -->
<g id="node3" class="node">
<title>AuthenticationModule</title>
<polygon fill="#8dd3c7" stroke="#000000" points="673.2534,-187 670.2534,-191 649.2534,-191 646.2534,-187 530.7466,-187 530.7466,-151 673.2534,-151 673.2534,-187"/>
<text text-anchor="middle" x="602" y="-164.8" font-family="Times,serif" font-size="14.00" fill="#000000">AuthenticationModule</text>
</g>
<!-- IdentityComponent&#45;&gt;AuthenticationModule -->
<g id="edge1" class="edge">
<title>IdentityComponent&#45;&gt;AuthenticationModule</title>
<path fill="none" stroke="#000000" d="M1020,-122.2843C1020,-143.3211 1020,-175 1020,-175 1020,-175 683.3818,-175 683.3818,-175"/>
<polygon fill="#000000" stroke="#000000" points="683.3818,-171.5001 673.3818,-175 683.3818,-178.5001 683.3818,-171.5001"/>
</g>
<!-- LoginComponent -->
<g id="node2" class="node">
<title>LoginComponent</title>
<polygon fill="#ffffb3" stroke="#000000" points="939.2758,-122 824.7242,-122 824.7242,-86 939.2758,-86 939.2758,-122"/>
<text text-anchor="middle" x="882" y="-99.8" font-family="Times,serif" font-size="14.00" fill="#000000">LoginComponent</text>
</g>
<!-- LoginComponent&#45;&gt;AuthenticationModule -->
<g id="edge2" class="edge">
<title>LoginComponent&#45;&gt;AuthenticationModule</title>
<path fill="none" stroke="#000000" d="M882,-122.0225C882,-139.3734 882,-163 882,-163 882,-163 683.3803,-163 683.3803,-163"/>
<polygon fill="#000000" stroke="#000000" points="683.3803,-159.5001 673.3803,-163 683.3803,-166.5001 683.3803,-159.5001"/>
</g>
<!-- AuthenticationService -->
<g id="node4" class="node">
<title>AuthenticationService</title>
<ellipse fill="#fdb462" stroke="#000000" cx="704" cy="-104" rx="97.2683" ry="18"/>
<text text-anchor="middle" x="704" y="-99.8" font-family="Times,serif" font-size="14.00" fill="#000000">AuthenticationService</text>
</g>
<!-- AuthenticationService&#45;&gt;AuthenticationModule -->
<g id="edge3" class="edge">
<title>AuthenticationService&#45;&gt;AuthenticationModule</title>
<path fill="none" stroke="#000000" d="M639.9963,-117.7848C639.9963,-117.7848 639.9963,-140.5475 639.9963,-140.5475"/>
<polygon fill="#000000" stroke="#000000" points="636.4964,-140.5474 639.9963,-150.5475 643.4964,-140.5475 636.4964,-140.5474"/>
</g>
<!-- LoginGuardService -->
<g id="node5" class="node">
<title>LoginGuardService</title>
<ellipse fill="#fdb462" stroke="#000000" cx="501" cy="-104" rx="87.3808" ry="18"/>
<text text-anchor="middle" x="501" y="-99.8" font-family="Times,serif" font-size="14.00" fill="#000000">LoginGuardService</text>
</g>
<!-- LoginGuardService&#45;&gt;AuthenticationModule -->
<g id="edge4" class="edge">
<title>LoginGuardService&#45;&gt;AuthenticationModule</title>
<path fill="none" stroke="#000000" d="M559.4068,-117.468C559.4068,-117.468 559.4068,-140.8642 559.4068,-140.8642"/>
<polygon fill="#000000" stroke="#000000" points="555.9069,-140.8641 559.4068,-150.8642 562.9069,-140.8642 555.9069,-140.8641"/>
</g>
<!-- StaffGuardService -->
<g id="node6" class="node">
<title>StaffGuardService</title>
<ellipse fill="#fdb462" stroke="#000000" cx="313" cy="-104" rx="82.7801" ry="18"/>
<text text-anchor="middle" x="313" y="-99.8" font-family="Times,serif" font-size="14.00" fill="#000000">StaffGuardService</text>
</g>
<!-- StaffGuardService&#45;&gt;AuthenticationModule -->
<g id="edge5" class="edge">
<title>StaffGuardService&#45;&gt;AuthenticationModule</title>
<path fill="none" stroke="#000000" d="M313,-122.0225C313,-139.3734 313,-163 313,-163 313,-163 520.5618,-163 520.5618,-163"/>
<polygon fill="#000000" stroke="#000000" points="520.5618,-166.5001 530.5618,-163 520.5617,-159.5001 520.5618,-166.5001"/>
</g>
<!-- StudentGuardService -->
<g id="node7" class="node">
<title>StudentGuardService</title>
<ellipse fill="#fdb462" stroke="#000000" cx="118" cy="-104" rx="93.7591" ry="18"/>
<text text-anchor="middle" x="118" y="-99.8" font-family="Times,serif" font-size="14.00" fill="#000000">StudentGuardService</text>
</g>
<!-- StudentGuardService&#45;&gt;AuthenticationModule -->
<g id="edge6" class="edge">
<title>StudentGuardService&#45;&gt;AuthenticationModule</title>
<path fill="none" stroke="#000000" d="M118,-122.2843C118,-143.3211 118,-175 118,-175 118,-175 520.5841,-175 520.5841,-175"/>
<polygon fill="#000000" stroke="#000000" points="520.5842,-178.5001 530.5841,-175 520.5841,-171.5001 520.5842,-178.5001"/>
</g>
</g>
</svg>
